<svg width="24" height="24" viewBox="0 0 24 24" fill="none" xmlns="http://www.w3.org/2000/svg">
<path d="M12.8976 8.7C12.8976 8.46131 12.8028 8.23239 12.634 8.06361C12.4652 7.89482 12.2363 7.8 11.9976 7.8C11.7589 7.8 11.53 7.89482 11.3612 8.06361C11.1924 8.23239 11.0976 8.46131 11.0976 8.7L11.1 14.574C10.5837 14.7829 10.1561 15.1648 9.89048 15.6544C9.62488 16.1439 9.53781 16.7106 9.6442 17.2573C9.75059 17.804 10.0438 18.2967 10.4736 18.6509C10.9034 19.0052 11.443 19.1989 12 19.1989C12.557 19.1989 13.0966 19.0052 13.5264 18.6509C13.9562 18.2967 14.2494 17.804 14.3558 17.2573C14.4622 16.7106 14.3751 16.1439 14.1095 15.6544C13.8439 15.1648 13.4163 14.7829 12.9 14.574L12.8976 8.7Z" fill="#4B3EAE"/>
<path d="M7.8 6.6V6.5976C7.81861 5.49678 8.26898 4.44733 9.05405 3.67543C9.83911 2.90353 10.896 2.47097 11.997 2.47097C13.098 2.47097 14.1549 2.90353 14.94 3.67543C15.725 4.44733 16.1754 5.49678 16.194 6.5976V13.3992C16.8365 14.1916 17.2413 15.1499 17.3617 16.1629C17.482 17.176 17.313 18.2024 16.874 19.1233C16.4351 20.0442 15.7443 20.822 14.8816 21.3665C14.0189 21.911 13.0196 22.2 11.9994 22.2C10.9792 22.2 9.97992 21.911 9.11721 21.3665C8.2545 20.822 7.56368 20.0442 7.12476 19.1233C6.68583 18.2024 6.51676 17.176 6.63711 16.1629C6.75746 15.1499 7.16232 14.1916 7.8048 13.3992C7.8048 11.3148 7.7952 8.6232 7.7952 6.6H7.8ZM9.6 6.5976C9.594 9.0936 9.6048 11.592 9.6048 14.0892L9.3648 14.3484C8.88736 14.8616 8.57014 15.503 8.45205 16.194C8.33397 16.8849 8.42015 17.5953 8.70004 18.2379C8.97993 18.8806 9.44133 19.4275 10.0276 19.8117C10.6139 20.1958 11.2996 20.4004 12.0006 20.4004C12.7015 20.4004 13.3872 20.1958 13.9736 19.8117C14.5599 19.4275 15.0213 18.8806 15.3012 18.2379C15.581 17.5953 15.6672 16.8849 15.5491 16.194C15.4311 15.503 15.1138 14.8616 14.6364 14.3484L14.3952 14.0892V6.5976C14.3952 5.96172 14.1426 5.35188 13.693 4.90224C13.2433 4.4526 12.6335 4.2 11.9976 4.2C11.3617 4.2 10.7519 4.4526 10.3022 4.90224C9.8526 5.35188 9.6 5.96172 9.6 6.5976Z" fill="#4B3EAE"/>
</svg>
